{
    "asset" : {
        "generator" : "Khronos glTF Blender I/O v1.7.33",
        "version" : "2.0"
    },
    "scene" : 0,
    "scenes" : [
        {
            "name" : "Scene",
            "nodes" : [
                0
            ]
        }
    ],
    "nodes" : [
        {
            "mesh" : 0,
            "name" : "Cube"
        }
    ],
    "meshes" : [
        {
            "name" : "Cube.001",
            "primitives" : [
                {
                    "attributes" : {
                        "POSITION" : 0,
                        "NORMAL" : 1,
                        "TANGENT" : 2,
                        "TEXCOORD_0" : 3
                    },
                    "indices" : 4
                }
            ]
        }
    ],
    "accessors" : [
        {
            "bufferView" : 0,
            "componentType" : 5126,
            "count" : 1218,
            "max" : [
                40.51275634765625,
                1,
                40.51275634765625
            ],
            "min" : [
                -40.51275634765625,
                -2.0610806941986084,
                -40.51275634765625
            ],
            "type" : "VEC3"
        },
        {
            "bufferView" : 1,
            "componentType" : 5126,
            "count" : 1218,
            "type" : "VEC3"
        },
        {
            "bufferView" : 2,
            "componentType" : 5126,
            "count" : 1218,
            "type" : "VEC4"
        },
        {
            "bufferView" : 3,
            "componentType" : 5126,
            "count" : 1218,
            "type" : "VEC2"
        },
        {
            "bufferView" : 4,
            "componentType" : 5123,
            "count" : 5910,
            "type" : "SCALAR"
        }
    ],
    "bufferViews" : [
        {
            "buffer" : 0,
            "byteLength" : 14616,
            "byteOffset" : 0
        },
        {
            "buffer" : 0,
            "byteLength" : 14616,
            "byteOffset" : 14616
        },
        {
            "buffer" : 0,
            "byteLength" : 19488,
            "byteOffset" : 29232
        },
        {
            "buffer" : 0,
            "byteLength" : 9744,
            "byteOffset" : 48720
        },
        {
            "buffer" : 0,
            "byteLength" : 11820,
            "byteOffset" : 58464
        }
    ],
    "buffers" : [
        {
            "byteLength" : 70284,
            "uri" : "data:application/octet-stream;base64,"
        }
    ]
}
